<svg width="76" height="22" viewBox="0 0 76 22" fill="none" xmlns="http://www.w3.org/2000/svg">
<g filter="url(#filter0_d_1_3)">
<path d="M8.75195 6.24414H7.9375C7.9375 7.17383 7.95703 8.1582 7.99609 9.19727C7.99609 9.2207 8.00586 9.24219 8.02539 9.26172C8.04492 9.28125 8.07227 9.30078 8.10742 9.32031C8.14648 9.33984 8.21094 9.36523 8.30078 9.39648C8.39062 9.42773 8.57227 9.46289 8.8457 9.50195C9.11914 9.53711 9.27539 9.55859 9.31445 9.56641C9.38086 9.78516 9.36914 10.0254 9.2793 10.2871C7.83789 10.2559 6.96289 10.2402 6.6543 10.2402C6.44336 10.2402 5.70703 10.2559 4.44531 10.2871C4.34766 10.0176 4.34766 9.76562 4.44531 9.53125C5.29297 9.44531 5.7207 9.33008 5.72852 9.18555C5.77539 8.20898 5.79883 6.98047 5.79883 5.5C5.79883 4.24219 5.7793 3.1543 5.74023 2.23633C5.73242 2.0918 5.29688 1.97656 4.43359 1.89062C4.35938 1.61719 4.36719 1.36523 4.45703 1.13477C5.65625 1.17383 6.45117 1.19336 6.8418 1.19336H12.2676C12.3652 1.95898 12.6699 2.76562 13.1816 3.61328C13.0918 3.80078 12.8828 3.95312 12.5547 4.07031C12.2344 3.48828 11.7617 3.00391 11.1367 2.61719C10.5156 2.22656 9.70898 2.03125 8.7168 2.03125H7.99609C7.95703 3.43359 7.9375 4.50977 7.9375 5.25977C8.12891 5.26758 8.4043 5.27148 8.76367 5.27148C9.0918 5.27148 9.35352 5.16211 9.54883 4.94336C9.74414 4.7207 9.95898 4.375 10.1934 3.90625L10.4453 3.41406C10.7734 3.53125 10.9805 3.68164 11.0664 3.86523C10.6523 4.61133 10.4453 5.22461 10.4453 5.70508C10.4453 6.22461 10.6523 6.83594 11.0664 7.53906C10.9727 7.73828 10.7734 7.89062 10.4688 7.99609C10.3789 7.875 10.2754 7.69141 10.1582 7.44531C9.99805 7.17969 9.87109 6.98242 9.77734 6.85352C9.68359 6.7207 9.54492 6.58789 9.36133 6.45508C9.17773 6.32227 8.97461 6.25195 8.75195 6.24414ZM7.03516 5.89844L8.70508 5.88672C8.87305 5.88672 9.03125 5.91406 9.17969 5.96875C9.32812 6.02344 9.44531 6.08008 9.53125 6.13867C9.62109 6.19336 9.72266 6.30078 9.83594 6.46094C9.95312 6.62109 10.0352 6.73828 10.082 6.8125C10.1328 6.88281 10.2148 7.03125 10.3281 7.25781C10.4453 7.48438 10.5234 7.63086 10.5625 7.69727C10.6836 7.64648 10.7598 7.59375 10.791 7.53906C10.4004 6.84375 10.2051 6.23242 10.2051 5.70508C10.2051 5.46289 10.2598 5.16797 10.3691 4.82031C10.4824 4.47266 10.623 4.1543 10.791 3.86523C10.7754 3.81055 10.6992 3.75977 10.5625 3.71289C10.5312 3.76758 10.4688 3.88477 10.375 4.06445C10.2852 4.24414 10.2266 4.36133 10.1992 4.41602C10.1719 4.4668 10.1152 4.5625 10.0293 4.70312C9.94727 4.84375 9.88086 4.9375 9.83008 4.98438C9.7832 5.03125 9.71289 5.10156 9.61914 5.19531C9.5293 5.28516 9.44141 5.34766 9.35547 5.38281C9.27344 5.41406 9.17578 5.44336 9.0625 5.4707C8.94922 5.49805 8.83008 5.51172 8.70508 5.51172C7.97461 5.51172 7.41797 5.50391 7.03516 5.48828C7.03516 4.54297 7.05859 3.31055 7.10547 1.79102H8.72852C10.6387 1.79102 11.9512 2.45117 12.666 3.77148C12.7676 3.73242 12.834 3.67969 12.8652 3.61328C12.4746 2.81641 12.0371 2.25391 11.5527 1.92578C11.0684 1.59766 10.3457 1.43359 9.38477 1.43359H6.67773C6.18945 1.43359 5.50391 1.41797 4.62109 1.38672V1.66211C5.51953 1.74805 5.97266 1.93555 5.98047 2.22461C6.01953 3.14258 6.03906 4.23438 6.03906 5.5C6.03906 6.73828 6.01562 7.9707 5.96875 9.19727C5.96094 9.48633 5.50781 9.67383 4.60938 9.75977C4.57812 9.82227 4.57812 9.91406 4.60938 10.0352C5.27344 10.0117 5.95508 10 6.6543 10C7.48633 10 8.28516 10.0117 9.05078 10.0352C9.08203 9.97266 9.08203 9.88086 9.05078 9.75977C7.76172 9.68164 7.10938 9.49414 7.09375 9.19727C7.05469 8.27539 7.03516 7.17578 7.03516 5.89844ZM14.4016 1.76758C15.2844 1.76758 15.7258 2.08789 15.7258 2.72852C15.7258 3.36914 15.2844 3.68945 14.4016 3.68945C14.2688 3.68945 14.1438 3.66406 14.0266 3.61328C13.9133 3.5625 13.8137 3.49414 13.7277 3.4082C13.6418 3.31836 13.5734 3.21484 13.5227 3.09766C13.4719 2.98047 13.4465 2.85742 13.4465 2.72852C13.4465 2.59961 13.4719 2.47656 13.5227 2.35938C13.5734 2.24219 13.6418 2.14062 13.7277 2.05469C13.8137 1.96484 13.9133 1.89453 14.0266 1.84375C14.1438 1.79297 14.2688 1.76758 14.4016 1.76758ZM13.8625 2.22461C13.7453 2.36133 13.6867 2.5293 13.6867 2.72852C13.6867 2.83008 13.7023 2.92578 13.7336 3.01562C13.7688 3.10156 13.8156 3.17773 13.8742 3.24414C13.9328 3.30664 13.9992 3.35742 14.0734 3.39648C14.1516 3.43164 14.2336 3.44922 14.3195 3.44922C14.4016 3.44922 14.4816 3.43164 14.5598 3.39648C14.6379 3.35742 14.7063 3.30664 14.7648 3.24414C14.8234 3.17773 14.8703 3.10156 14.9055 3.01562C14.9406 2.92578 14.9582 2.83008 14.9582 2.72852C14.9582 2.62695 14.9406 2.5332 14.9055 2.44727C14.8703 2.35742 14.8234 2.28125 14.7648 2.21875C14.7063 2.15234 14.6379 2.10156 14.5598 2.06641C14.4816 2.02734 14.4016 2.00781 14.3195 2.00781C14.2375 2.00781 14.1574 2.02539 14.0793 2.06055C14.0012 2.0957 13.9289 2.15039 13.8625 2.22461ZM16.2297 9.73047C15.3 9.64453 14.8313 9.45703 14.8234 9.16797C14.7844 7.99609 14.7688 6.55664 14.7766 4.84961C14.7453 4.78711 14.677 4.73633 14.5715 4.69727C14.0285 4.95117 13.4641 5.11133 12.8781 5.17773C12.8547 5.27148 12.8547 5.36328 12.8781 5.45312C13.3195 5.47656 13.6555 5.55664 13.8859 5.69336C13.9211 7.15039 13.9172 8.30859 13.8742 9.16797C13.8664 9.45703 13.5344 9.64453 12.8781 9.73047C12.8391 9.82812 12.8391 9.92383 12.8781 10.0176C13.9992 9.99414 15.1164 9.99414 16.2297 10.0176C16.2688 9.92383 16.2688 9.82812 16.2297 9.73047ZM16.4465 9.51367C16.509 9.75586 16.509 9.99219 16.4465 10.2227C15.1887 10.1836 13.9289 10.1836 12.6672 10.2227C12.6008 9.99219 12.6008 9.75586 12.6672 9.51367C13.3039 9.45117 13.6262 9.33203 13.634 9.15625C13.6848 8.0625 13.6887 6.95508 13.6457 5.83398C13.384 5.75586 13.0578 5.70508 12.6672 5.68164C12.5773 5.44727 12.5773 5.19922 12.6672 4.9375C13.257 4.90625 13.9211 4.73047 14.6594 4.41016C15.0813 4.44141 15.3957 4.56836 15.6027 4.79102C15.5871 6.71289 15.6027 8.16797 15.6496 9.15625C15.6613 9.33203 15.927 9.45117 16.4465 9.51367ZM19.9926 9.73047C19.9457 9.82031 19.9457 9.91602 19.9926 10.0176C21.0082 9.99414 22.0258 9.99414 23.0453 10.0176C23.1 9.92383 23.1 9.82812 23.0453 9.73047C22.0922 9.68359 21.6117 9.49609 21.6039 9.16797L21.5453 6.2207C21.5258 5.68555 21.4379 5.29492 21.2816 5.04883C21.1293 4.79883 20.8598 4.67383 20.473 4.67383C19.8246 4.67383 19.0531 5.12109 18.1586 6.01562V4.84961C18.1273 4.78711 18.059 4.73633 17.9535 4.69727C17.4105 4.95117 16.8461 5.11133 16.2602 5.17773C16.2367 5.27148 16.2367 5.36328 16.2602 5.45312C16.7094 5.47656 17.0414 5.55664 17.2563 5.69336C17.2992 6.86133 17.2992 8.01953 17.2563 9.16797C17.2484 9.45703 16.9125 9.64453 16.2484 9.73047C16.2016 9.82031 16.2016 9.91602 16.2484 10.0176C17.2641 9.97852 18.2855 9.97852 19.3129 10.0176C19.3598 9.91602 19.3598 9.82031 19.3129 9.73047C18.5824 9.65234 18.2133 9.46484 18.2055 9.16797C18.1742 8.35547 18.1586 7.42969 18.1586 6.39062C18.9438 5.69922 19.559 5.35352 20.0043 5.35352C20.4301 5.35352 20.643 5.70703 20.643 6.41406L20.6313 9.16797C20.6313 9.35938 20.5727 9.49414 20.4555 9.57227C20.3383 9.64648 20.184 9.69922 19.9926 9.73047ZM19.8051 10.2227C19.7074 9.99219 19.7074 9.75586 19.8051 9.51367C19.9301 9.51367 20.059 9.48047 20.1918 9.41406C20.3246 9.34375 20.391 9.26172 20.391 9.16797L20.4027 6.41406C20.4027 5.98828 20.3188 5.72852 20.1508 5.63477C19.8617 5.70508 19.473 5.91602 18.9848 6.26758C18.9848 7.3418 19.0004 8.30469 19.0316 9.15625C19.0512 9.36328 19.2074 9.48242 19.5004 9.51367C19.598 9.75586 19.598 9.99219 19.5004 10.2227C18.3559 10.1836 17.2055 10.1836 16.0492 10.2227C15.9516 9.99219 15.9516 9.75586 16.0492 9.51367C16.6859 9.42773 17.0082 9.30859 17.016 9.15625C17.059 8.05469 17.059 6.94727 17.016 5.83398C16.7543 5.75586 16.432 5.70508 16.0492 5.68164C15.9594 5.44727 15.9594 5.19922 16.0492 4.9375C16.6391 4.90625 17.3031 4.73047 18.0414 4.41016C18.4633 4.44141 18.7777 4.56836 18.9848 4.79102V4.98438C19.5395 4.61719 20.1762 4.43359 20.8949 4.43359C21.4223 4.43359 21.7973 4.57812 22.0199 4.86719C22.2465 5.15234 22.3637 5.60352 22.3715 6.2207C22.3871 7.77148 22.4066 8.75391 22.4301 9.16797C22.4379 9.32812 22.7133 9.44336 23.2563 9.51367C23.3461 9.77148 23.3383 10.0078 23.2328 10.2227C22.0883 10.1992 20.9457 10.1992 19.8051 10.2227ZM25.7008 9.40234C25.2359 9.40234 24.8824 9.21484 24.6402 8.83984C24.402 8.46094 24.2828 7.98438 24.2828 7.41016C24.2828 6.94531 24.3297 6.54688 24.4234 6.21484C24.5211 5.88281 24.648 5.63867 24.8043 5.48242C24.9605 5.32617 25.1129 5.2168 25.2613 5.1543C25.4098 5.08789 25.5602 5.05469 25.7125 5.05469C26.2633 5.05469 26.6754 5.28711 26.9488 5.75195V6.60156C26.9488 7.66797 26.9449 8.39258 26.9371 8.77539C26.5035 9.19336 26.0914 9.40234 25.7008 9.40234ZM29.527 9.53125C29.6559 9.78906 29.648 10.0371 29.5035 10.2754C28.5035 10.2441 27.6637 10.2441 26.984 10.2754C26.8395 10.2129 26.7477 10.1328 26.7086 10.0352C26.3297 10.2852 25.8043 10.4102 25.1324 10.4102C24.4684 10.4102 23.9293 10.1621 23.5152 9.66602C23.1051 9.16992 22.9 8.49414 22.9 7.63867C22.9 7.25977 22.9566 6.89062 23.0699 6.53125C23.1832 6.17188 23.3531 5.83203 23.5797 5.51172C23.8062 5.19141 24.1207 4.93164 24.523 4.73242C24.9293 4.5332 25.3922 4.43359 25.9117 4.43359C26.2672 4.43359 26.5328 4.44141 26.7086 4.45703C26.7008 3.83984 26.6969 3.09961 26.6969 2.23633C26.4391 2.1543 26.0816 2.10156 25.6246 2.07812C25.5387 1.84766 25.5387 1.59961 25.6246 1.33398C26.1715 1.28711 26.8648 1.11133 27.7047 0.806641C28.1266 0.837891 28.441 0.966797 28.648 1.19336C28.648 5.65039 28.6656 8.31445 28.7008 9.18555C28.7086 9.35352 28.984 9.46875 29.527 9.53125ZM26.7086 5.81055C26.5133 5.5332 26.2574 5.36914 25.941 5.31836C25.6676 5.37695 25.4332 5.56641 25.2379 5.88672C25.0426 6.20312 24.9449 6.71094 24.9449 7.41016C24.9449 7.86328 25.023 8.24805 25.1793 8.56445C25.3395 8.88086 25.5797 9.07227 25.9 9.13867C26.1578 9.08008 26.4234 8.92773 26.6969 8.68164C26.7047 8.29492 26.7086 7.60156 26.7086 6.60156V5.81055ZM29.3102 9.74805C29.1109 9.73242 28.9586 9.7168 28.8531 9.70117C28.7516 9.68555 28.607 9.6582 28.4195 9.61914C28.2359 9.57617 28.0973 9.52148 28.0035 9.45508C27.9137 9.38477 27.8687 9.29883 27.8687 9.19727C27.8375 8.32617 27.8219 5.67773 27.8219 1.25195C27.7828 1.18164 27.7145 1.12891 27.6168 1.09375C27.0973 1.34375 26.4937 1.50391 25.8062 1.57422C25.7828 1.67188 25.7828 1.76367 25.8062 1.84961C26.3336 1.87695 26.7105 1.95703 26.9371 2.08984C26.9371 3.19531 26.941 4.11914 26.9488 4.86133C26.5465 4.73633 26.2008 4.67383 25.9117 4.67383C25.4508 4.67383 25.0426 4.76562 24.6871 4.94922C24.3355 5.13281 24.0602 5.375 23.8609 5.67578C23.6617 5.97266 23.5113 6.28711 23.4098 6.61914C23.3121 6.95117 23.2633 7.29102 23.2633 7.63867C23.2633 8.41992 23.4371 9.03711 23.7848 9.49023C24.1324 9.94336 24.5504 10.1699 25.0387 10.1699C25.6559 10.1699 26.2828 9.85352 26.9195 9.2207C26.9195 9.54883 26.9117 9.75977 26.8961 9.85352C26.9391 9.94336 26.9879 10.0039 27.0426 10.0352C27.1715 10.0273 27.2984 10.0195 27.4234 10.0117C27.5523 10.0039 27.6539 9.99805 27.7281 9.99414C27.8062 9.99023 27.8746 9.98828 27.9332 9.98828C28.148 9.98828 28.607 10 29.3102 10.0234C29.3648 9.94531 29.3648 9.85352 29.3102 9.74805ZM30.8758 1.76758C31.7586 1.76758 32.2 2.08789 32.2 2.72852C32.2 3.36914 31.7586 3.68945 30.8758 3.68945C30.743 3.68945 30.618 3.66406 30.5008 3.61328C30.3875 3.5625 30.2879 3.49414 30.202 3.4082C30.116 3.31836 30.0477 3.21484 29.9969 3.09766C29.9461 2.98047 29.9207 2.85742 29.9207 2.72852C29.9207 2.59961 29.9461 2.47656 29.9969 2.35938C30.0477 2.24219 30.116 2.14062 30.202 2.05469C30.2879 1.96484 30.3875 1.89453 30.5008 1.84375C30.618 1.79297 30.743 1.76758 30.8758 1.76758ZM30.3367 2.22461C30.2195 2.36133 30.1609 2.5293 30.1609 2.72852C30.1609 2.83008 30.1766 2.92578 30.2078 3.01562C30.243 3.10156 30.2898 3.17773 30.3484 3.24414C30.407 3.30664 30.4734 3.35742 30.5477 3.39648C30.6258 3.43164 30.7078 3.44922 30.7938 3.44922C30.8758 3.44922 30.9559 3.43164 31.034 3.39648C31.1121 3.35742 31.1805 3.30664 31.2391 3.24414C31.2977 3.17773 31.3445 3.10156 31.3797 3.01562C31.4148 2.92578 31.4324 2.83008 31.4324 2.72852C31.4324 2.62695 31.4148 2.5332 31.3797 2.44727C31.3445 2.35742 31.2977 2.28125 31.2391 2.21875C31.1805 2.15234 31.1121 2.10156 31.034 2.06641C30.9559 2.02734 30.8758 2.00781 30.7938 2.00781C30.7117 2.00781 30.6316 2.02539 30.5535 2.06055C30.4754 2.0957 30.4031 2.15039 30.3367 2.22461ZM32.7039 9.73047C31.7742 9.64453 31.3055 9.45703 31.2977 9.16797C31.2586 7.99609 31.243 6.55664 31.2508 4.84961C31.2195 4.78711 31.1512 4.73633 31.0457 4.69727C30.5027 4.95117 29.9383 5.11133 29.3523 5.17773C29.3289 5.27148 29.3289 5.36328 29.3523 5.45312C29.7938 5.47656 30.1297 5.55664 30.3602 5.69336C30.3953 7.15039 30.3914 8.30859 30.3484 9.16797C30.3406 9.45703 30.0086 9.64453 29.3523 9.73047C29.3133 9.82812 29.3133 9.92383 29.3523 10.0176C30.4734 9.99414 31.5906 9.99414 32.7039 10.0176C32.743 9.92383 32.743 9.82812 32.7039 9.73047ZM32.9207 9.51367C32.9832 9.75586 32.9832 9.99219 32.9207 10.2227C31.6629 10.1836 30.4031 10.1836 29.1414 10.2227C29.075 9.99219 29.075 9.75586 29.1414 9.51367C29.7781 9.45117 30.1004 9.33203 30.1082 9.15625C30.159 8.0625 30.1629 6.95508 30.1199 5.83398C29.8582 5.75586 29.532 5.70508 29.1414 5.68164C29.0516 5.44727 29.0516 5.19922 29.1414 4.9375C29.7313 4.90625 30.3953 4.73047 31.1336 4.41016C31.5555 4.44141 31.8699 4.56836 32.077 4.79102C32.0613 6.71289 32.077 8.16797 32.1238 9.15625C32.1355 9.33203 32.4012 9.45117 32.9207 9.51367ZM36.4668 9.73047C36.4199 9.82031 36.4199 9.91602 36.4668 10.0176C37.4824 9.99414 38.5 9.99414 39.5195 10.0176C39.5742 9.92383 39.5742 9.82812 39.5195 9.73047C38.5664 9.68359 38.0859 9.49609 38.0781 9.16797L38.0195 6.2207C38 5.68555 37.9121 5.29492 37.7559 5.04883C37.6035 4.79883 37.334 4.67383 36.9473 4.67383C36.2988 4.67383 35.5273 5.12109 34.6328 6.01562V4.84961C34.6016 4.78711 34.5332 4.73633 34.4277 4.69727C33.8848 4.95117 33.3203 5.11133 32.7344 5.17773C32.7109 5.27148 32.7109 5.36328 32.7344 5.45312C33.1836 5.47656 33.5156 5.55664 33.7305 5.69336C33.7734 6.86133 33.7734 8.01953 33.7305 9.16797C33.7227 9.45703 33.3867 9.64453 32.7227 9.73047C32.6758 9.82031 32.6758 9.91602 32.7227 10.0176C33.7383 9.97852 34.7598 9.97852 35.7871 10.0176C35.834 9.91602 35.834 9.82031 35.7871 9.73047C35.0566 9.65234 34.6875 9.46484 34.6797 9.16797C34.6484 8.35547 34.6328 7.42969 34.6328 6.39062C35.418 5.69922 36.0332 5.35352 36.4785 5.35352C36.9043 5.35352 37.1172 5.70703 37.1172 6.41406L37.1055 9.16797C37.1055 9.35938 37.0469 9.49414 36.9297 9.57227C36.8125 9.64648 36.6582 9.69922 36.4668 9.73047ZM36.2793 10.2227C36.1816 9.99219 36.1816 9.75586 36.2793 9.51367C36.4043 9.51367 36.5332 9.48047 36.666 9.41406C36.7988 9.34375 36.8652 9.26172 36.8652 9.16797L36.877 6.41406C36.877 5.98828 36.793 5.72852 36.625 5.63477C36.3359 5.70508 35.9473 5.91602 35.459 6.26758C35.459 7.3418 35.4746 8.30469 35.5059 9.15625C35.5254 9.36328 35.6816 9.48242 35.9746 9.51367C36.0723 9.75586 36.0723 9.99219 35.9746 10.2227C34.8301 10.1836 33.6797 10.1836 32.5234 10.2227C32.4258 9.99219 32.4258 9.75586 32.5234 9.51367C33.1602 9.42773 33.4824 9.30859 33.4902 9.15625C33.5332 8.05469 33.5332 6.94727 33.4902 5.83398C33.2285 5.75586 32.9062 5.70508 32.5234 5.68164C32.4336 5.44727 32.4336 5.19922 32.5234 4.9375C33.1133 4.90625 33.7773 4.73047 34.5156 4.41016C34.9375 4.44141 35.252 4.56836 35.459 4.79102V4.98438C36.0137 4.61719 36.6504 4.43359 37.3691 4.43359C37.8965 4.43359 38.2715 4.57812 38.4941 4.86719C38.7207 5.15234 38.8379 5.60352 38.8457 6.2207C38.8613 7.77148 38.8809 8.75391 38.9043 9.16797C38.9121 9.32812 39.1875 9.44336 39.7305 9.51367C39.8203 9.77148 39.8125 10.0078 39.707 10.2227C38.5625 10.1992 37.4199 10.1992 36.2793 10.2227ZM40.634 6.60156C40.634 6.05859 40.7355 5.66602 40.9387 5.42383C41.1457 5.17773 41.4055 5.05469 41.718 5.05469C41.9484 5.05469 42.1613 5.16602 42.3566 5.38867C42.5559 5.60742 42.6555 5.97656 42.6555 6.49609C42.6555 7.60938 42.3508 8.16602 41.7414 8.16602C41.0031 8.16602 40.634 7.64453 40.634 6.60156ZM40.6105 11.5586C40.6105 11.1289 40.8586 10.7812 41.3547 10.5156C41.6672 10.4844 42.1477 10.4688 42.7961 10.4688C43.2609 10.4688 43.5715 10.5547 43.7277 10.7266C43.884 10.8984 43.9621 11.1484 43.9621 11.4766C43.9621 11.7578 43.8117 12.0488 43.5109 12.3496C43.2102 12.6543 42.7609 12.8066 42.1633 12.8066C41.6242 12.8066 41.2297 12.6836 40.9797 12.4375C40.7336 12.1953 40.6105 11.9023 40.6105 11.5586ZM44.3781 4.92578C44.4836 4.93359 44.5363 4.98828 44.5363 5.08984C44.5363 5.21875 44.4562 5.29492 44.2961 5.31836C44.1594 5.33398 43.9914 5.30273 43.7922 5.22461C43.6867 5.18555 43.552 5.13086 43.3879 5.06055C43.2238 4.98633 43.1086 4.93555 43.0422 4.9082C42.9758 4.87695 42.884 4.8418 42.7668 4.80273C42.6496 4.76367 42.548 4.73828 42.4621 4.72656C42.3801 4.71484 42.2766 4.70312 42.1516 4.69141C42.0305 4.67969 41.8937 4.67383 41.7414 4.67383C41.1477 4.67383 40.6437 4.87305 40.2297 5.27148C39.8195 5.66992 39.6145 6.10938 39.6145 6.58984C39.6145 7.36719 39.968 7.95117 40.675 8.3418C40.0422 8.81445 39.7258 9.23828 39.7258 9.61328C39.7258 10.0859 40.1008 10.3789 40.8508 10.4922C40.0852 10.9062 39.7023 11.4023 39.7023 11.9805C39.7023 12.3555 39.8781 12.668 40.2297 12.918C40.5812 13.1719 41.0969 13.2988 41.7766 13.2988C42.5852 13.2988 43.2687 13.0312 43.8273 12.4961C44.3898 11.9609 44.6711 11.416 44.6711 10.8613C44.6711 9.9668 44.1262 9.51953 43.0363 9.51953C42.9152 9.51953 42.7551 9.52344 42.5559 9.53125C42.3566 9.53906 42.2199 9.54297 42.1457 9.54297C41.548 9.54297 41.1262 9.50391 40.8801 9.42578C40.6379 9.34375 40.5168 9.21484 40.5168 9.03906C40.5168 8.81641 40.6887 8.63281 41.0324 8.48828C41.2707 8.52734 41.5227 8.54688 41.7883 8.54688C42.3156 8.54688 42.7609 8.36328 43.1242 7.99609C43.4914 7.62891 43.675 7.13281 43.675 6.50781C43.675 6.01172 43.5812 5.63672 43.3937 5.38281L43.423 5.35352C43.4855 5.39648 43.5695 5.45703 43.675 5.53516C43.7844 5.60938 43.8664 5.66211 43.9211 5.69336C43.9797 5.72461 44.0539 5.75586 44.1437 5.78711C44.2375 5.81836 44.3293 5.83398 44.4191 5.83398C44.5676 5.83398 44.6926 5.77734 44.7941 5.66406C44.8957 5.54688 44.9465 5.4082 44.9465 5.24805C44.9465 5.08008 44.8977 4.93945 44.8 4.82617C44.7062 4.70898 44.5656 4.65039 44.3781 4.65039C44.3234 4.75195 44.3234 4.84375 44.3781 4.92578ZM44.4543 6.07422C44.4855 6.20312 44.5012 6.34766 44.5012 6.50781C44.5012 7.20312 44.2785 7.75781 43.8332 8.17188C43.3918 8.58203 42.8508 8.78711 42.2102 8.78711H41.4777C41.3645 8.91602 41.3312 9.03125 41.3781 9.13281C41.4289 9.23047 41.5227 9.2793 41.6594 9.2793H43.6223C44.8723 9.2793 45.4973 9.80664 45.4973 10.8613C45.4973 11.1426 45.4133 11.4375 45.2453 11.7461C45.0773 12.0547 44.843 12.3418 44.5422 12.6074C44.2414 12.877 43.8469 13.0996 43.3586 13.2754C42.8703 13.4512 42.343 13.5391 41.7766 13.5391C41.0148 13.5391 40.4387 13.3906 40.048 13.0938C39.6574 12.8008 39.4621 12.4297 39.4621 11.9805C39.4621 11.4844 39.7219 11.0234 40.2414 10.5977C39.7375 10.4219 39.4855 10.0938 39.4855 9.61328C39.4855 9.19922 39.7414 8.7793 40.2531 8.35352C39.6672 7.93164 39.3742 7.34375 39.3742 6.58984C39.3742 6.05469 39.6047 5.5625 40.0656 5.11328C40.5266 4.66016 41.0852 4.43359 41.7414 4.43359C42.2297 4.43359 42.5891 4.45898 42.8195 4.50977C43.0539 4.56055 43.3469 4.6582 43.6984 4.80273C43.8742 4.54102 44.1008 4.41016 44.3781 4.41016C44.6516 4.41016 44.8547 4.49023 44.9875 4.65039C45.1203 4.81055 45.1867 5.00977 45.1867 5.24805C45.1867 5.47852 45.1203 5.67383 44.9875 5.83398C44.8547 5.99414 44.677 6.07422 44.4543 6.07422ZM41.4426 11.5586C41.4426 11.8086 41.5148 12.0273 41.6594 12.2148C41.8078 12.4023 42.0461 12.5156 42.3742 12.5547C42.8234 12.5156 43.1594 12.377 43.382 12.1387C43.6086 11.9043 43.7219 11.6836 43.7219 11.4766C43.7219 11.2344 43.6672 11.0449 43.5578 10.9082C43.4484 10.7754 43.2395 10.709 42.9309 10.709C42.5598 10.709 42.1945 10.7246 41.8352 10.7559C41.5734 10.9785 41.4426 11.2461 41.4426 11.5586ZM41.466 6.60156C41.466 7.33984 41.6262 7.76953 41.9465 7.89062C42.259 7.76953 42.4152 7.30469 42.4152 6.49609C42.4152 5.85547 42.2512 5.4707 41.923 5.3418C41.6184 5.4707 41.466 5.89062 41.466 6.60156ZM50.2047 1.89062C50.0055 1.89844 49.8883 1.94531 49.8531 2.03125C49.818 2.11328 49.8434 2.26172 49.9293 2.47656L51.734 6.91797L52.4488 4.99609L51.441 2.46484C51.3551 2.25781 51.2496 2.11523 51.1246 2.03711C50.9996 1.95508 50.8023 1.90625 50.5328 1.89062C50.4352 1.64062 50.4352 1.4082 50.5328 1.19336H54.6695C54.7672 1.4082 54.7672 1.64062 54.6695 1.89062C54.2477 1.90625 53.9723 1.96484 53.8434 2.06641C53.7145 2.16406 53.6832 2.30078 53.7496 2.47656L55.4254 6.88281L57.0719 2.47656C57.15 2.26172 57.1227 2.11914 56.9898 2.04883C56.8609 1.97461 56.5992 1.92187 56.2047 1.89062C56.1109 1.64062 56.1109 1.4082 56.2047 1.19336H59.6852C59.7828 1.4082 59.7828 1.64062 59.6852 1.89062C59.0953 1.92969 58.7164 1.98828 58.5484 2.06641C58.3727 2.15625 58.2477 2.29297 58.1734 2.47656L55.1734 10.4102H54.5758L53.0055 6.36133L51.4762 10.4102H50.8902L47.6148 2.47656C47.5367 2.28516 47.398 2.15039 47.1988 2.07227C47.0035 1.99023 46.7105 1.92969 46.3199 1.89062C46.2223 1.64062 46.2223 1.4082 46.3199 1.19336H50.2047C50.3023 1.4082 50.3023 1.64062 50.2047 1.89062ZM50.0055 1.38672H46.525C46.4742 1.46484 46.4742 1.55664 46.525 1.66211C47.2281 1.73242 47.6637 1.97266 47.8316 2.38281L51.0484 10.1699H51.3121L52.9762 5.70508L54.7457 10.1699H55.0094L57.9859 2.30664C58.0719 2.08398 58.2281 1.92969 58.4547 1.84375C58.6852 1.75391 59.0113 1.69336 59.4332 1.66211C59.484 1.55664 59.484 1.46484 59.4332 1.38672H56.4566C56.4098 1.46484 56.4098 1.55664 56.4566 1.66211C56.9215 1.7168 57.2066 1.78906 57.3121 1.87891C57.441 1.98047 57.4684 2.12305 57.3941 2.30664L55.1148 8.44141L52.8004 2.38281C52.7105 2.17188 52.8023 2.00781 53.0758 1.89062C53.3492 1.76953 53.7965 1.69336 54.4176 1.66211C54.4684 1.55664 54.4684 1.46484 54.4176 1.38672H50.7379C50.6871 1.46484 50.6871 1.55664 50.7379 1.66211C50.984 1.68555 51.1773 1.75 51.318 1.85547C51.4586 1.95703 51.5758 2.13281 51.6695 2.38281L52.7008 4.99609L51.4176 8.44141L48.9566 2.38281C48.8238 2.11719 48.8375 1.94141 48.9977 1.85547C49.1578 1.76563 49.4938 1.70117 50.0055 1.66211C50.0523 1.55664 50.0523 1.46484 50.0055 1.38672ZM60.4539 1.76758C61.3367 1.76758 61.7781 2.08789 61.7781 2.72852C61.7781 3.36914 61.3367 3.68945 60.4539 3.68945C60.3211 3.68945 60.1961 3.66406 60.0789 3.61328C59.9656 3.5625 59.866 3.49414 59.7801 3.4082C59.6941 3.31836 59.6258 3.21484 59.575 3.09766C59.5242 2.98047 59.4988 2.85742 59.4988 2.72852C59.4988 2.59961 59.5242 2.47656 59.575 2.35938C59.6258 2.24219 59.6941 2.14062 59.7801 2.05469C59.866 1.96484 59.9656 1.89453 60.0789 1.84375C60.1961 1.79297 60.3211 1.76758 60.4539 1.76758ZM59.9148 2.22461C59.7977 2.36133 59.7391 2.5293 59.7391 2.72852C59.7391 2.83008 59.7547 2.92578 59.7859 3.01562C59.8211 3.10156 59.868 3.17773 59.9266 3.24414C59.9852 3.30664 60.0516 3.35742 60.1258 3.39648C60.2039 3.43164 60.2859 3.44922 60.3719 3.44922C60.4539 3.44922 60.534 3.43164 60.6121 3.39648C60.6902 3.35742 60.7586 3.30664 60.8172 3.24414C60.8758 3.17773 60.9227 3.10156 60.9578 3.01562C60.993 2.92578 61.0105 2.83008 61.0105 2.72852C61.0105 2.62695 60.993 2.5332 60.9578 2.44727C60.9227 2.35742 60.8758 2.28125 60.8172 2.21875C60.7586 2.15234 60.6902 2.10156 60.6121 2.06641C60.534 2.02734 60.4539 2.00781 60.3719 2.00781C60.2898 2.00781 60.2098 2.02539 60.1316 2.06055C60.0535 2.0957 59.9813 2.15039 59.9148 2.22461ZM62.282 9.73047C61.3523 9.64453 60.8836 9.45703 60.8758 9.16797C60.8367 7.99609 60.8211 6.55664 60.8289 4.84961C60.7977 4.78711 60.7293 4.73633 60.6238 4.69727C60.0809 4.95117 59.5164 5.11133 58.9305 5.17773C58.907 5.27148 58.907 5.36328 58.9305 5.45312C59.3719 5.47656 59.7078 5.55664 59.9383 5.69336C59.9734 7.15039 59.9695 8.30859 59.9266 9.16797C59.9188 9.45703 59.5867 9.64453 58.9305 9.73047C58.8914 9.82812 58.8914 9.92383 58.9305 10.0176C60.0516 9.99414 61.1688 9.99414 62.282 10.0176C62.3211 9.92383 62.3211 9.82812 62.282 9.73047ZM62.4988 9.51367C62.5613 9.75586 62.5613 9.99219 62.4988 10.2227C61.241 10.1836 59.9813 10.1836 58.7195 10.2227C58.6531 9.99219 58.6531 9.75586 58.7195 9.51367C59.3563 9.45117 59.6785 9.33203 59.6863 9.15625C59.7371 8.0625 59.741 6.95508 59.698 5.83398C59.4363 5.75586 59.1102 5.70508 58.7195 5.68164C58.6297 5.44727 58.6297 5.19922 58.7195 4.9375C59.3094 4.90625 59.9734 4.73047 60.7117 4.41016C61.1336 4.44141 61.448 4.56836 61.6551 4.79102C61.6395 6.71289 61.6551 8.16797 61.702 9.15625C61.7137 9.33203 61.9793 9.45117 62.4988 9.51367ZM65.4473 4.80273C65.4004 4.9082 65.4004 5 65.4473 5.07812C65.5684 5.09375 65.6797 5.125 65.7812 5.17188C65.8867 5.21484 65.9609 5.2793 66.0039 5.36523C66.0469 5.44727 66.0098 5.54102 65.8926 5.64648L64.7031 6.77148H64.2344C64.2266 5.61133 64.2227 3.77148 64.2227 1.25195C64.1836 1.18164 64.1152 1.12891 64.0176 1.09375C63.498 1.34375 62.8945 1.50391 62.207 1.57422C62.1836 1.67188 62.1836 1.76367 62.207 1.84961C62.7344 1.87695 63.1113 1.95703 63.3379 2.08984C63.3379 2.57812 63.3438 3.3125 63.3555 4.29297C63.3672 5.27344 63.373 6.15625 63.373 6.94141C63.373 7.72266 63.3555 8.47461 63.3203 9.19727C63.3125 9.48633 62.9805 9.67383 62.3242 9.75977C62.2773 9.85742 62.2773 9.94922 62.3242 10.0352C62.8398 10.0117 63.3359 10 63.8125 10C64.2773 10 64.7656 10.0117 65.2773 10.0352C65.3281 9.94922 65.3281 9.85742 65.2773 9.75977C64.6055 9.67383 64.2695 9.48633 64.2695 9.19727C64.2461 8.76367 64.2344 8.08008 64.2344 7.14648H64.6914L66.2852 9.19727C66.5195 9.49414 66.3926 9.66992 65.9043 9.72461C65.8574 9.81836 65.8574 9.91016 65.9043 10H67.2461C67.6875 10 68.1836 10.0117 68.7344 10.0352C68.7812 9.94922 68.7812 9.85742 68.7344 9.75977C68.2383 9.70508 67.8906 9.60938 67.6914 9.47266C67.5781 9.39844 67.4785 9.30664 67.3926 9.19727L65.4004 6.68945L66.4316 5.64648C66.7285 5.3418 67.2207 5.15234 67.9082 5.07812C67.9395 4.98438 67.9395 4.89258 67.9082 4.80273C67.0371 4.85352 66.2168 4.85352 65.4473 4.80273ZM65.3418 4.5625C66.3965 4.60156 67.3066 4.59766 68.0723 4.55078C68.1699 4.79297 68.1758 5.04492 68.0898 5.30664C67.3594 5.38086 66.8633 5.54883 66.6016 5.81055L66.0449 6.37891L68.1719 9.05078C68.3008 9.21094 68.4141 9.32422 68.5117 9.39062C68.6133 9.45312 68.7676 9.50391 68.9746 9.54297C69.0645 9.80078 69.0566 10.0371 68.9512 10.252C68.1504 10.2051 67.1055 10.2051 65.8164 10.252C65.6992 10.0059 65.6836 9.76953 65.7695 9.54297C66.0039 9.49609 66.0762 9.38086 65.9863 9.19727L65.0605 8.01953C65.0605 8.52344 65.0742 8.91602 65.1016 9.19727C65.1172 9.38086 65.2168 9.49609 65.4004 9.54297C65.4785 9.75 65.4707 9.98633 65.377 10.252C64.3105 10.2285 63.2383 10.2285 62.1602 10.252C62 10.0137 61.9922 9.77734 62.1367 9.54297C62.7578 9.46484 63.0742 9.3457 63.0859 9.18555C63.1016 8.79883 63.1094 7.9375 63.1094 6.60156C63.1094 6.27344 63.1074 5.7832 63.1035 5.13086C63.0996 4.47461 63.0977 4.00195 63.0977 3.71289V2.23633C62.8398 2.1543 62.4824 2.10156 62.0254 2.07812C61.9395 1.84766 61.9395 1.59961 62.0254 1.33398C62.5723 1.28711 63.2656 1.11133 64.1055 0.806641C64.5273 0.837891 64.8418 0.966797 65.0488 1.19336V6.09766L65.7227 5.46484C65.7773 5.41016 65.7734 5.36914 65.7109 5.3418C65.6797 5.33398 65.5508 5.31055 65.3242 5.27148C65.207 5.04883 65.2129 4.8125 65.3418 4.5625ZM69.8078 1.76758C70.6906 1.76758 71.132 2.08789 71.132 2.72852C71.132 3.36914 70.6906 3.68945 69.8078 3.68945C69.675 3.68945 69.55 3.66406 69.4328 3.61328C69.3195 3.5625 69.2199 3.49414 69.134 3.4082C69.048 3.31836 68.9797 3.21484 68.9289 3.09766C68.8781 2.98047 68.8527 2.85742 68.8527 2.72852C68.8527 2.59961 68.8781 2.47656 68.9289 2.35938C68.9797 2.24219 69.048 2.14062 69.134 2.05469C69.2199 1.96484 69.3195 1.89453 69.4328 1.84375C69.55 1.79297 69.675 1.76758 69.8078 1.76758ZM69.2687 2.22461C69.1516 2.36133 69.093 2.5293 69.093 2.72852C69.093 2.83008 69.1086 2.92578 69.1398 3.01562C69.175 3.10156 69.2219 3.17773 69.2805 3.24414C69.3391 3.30664 69.4055 3.35742 69.4797 3.39648C69.5578 3.43164 69.6398 3.44922 69.7258 3.44922C69.8078 3.44922 69.8879 3.43164 69.966 3.39648C70.0441 3.35742 70.1125 3.30664 70.1711 3.24414C70.2297 3.17773 70.2766 3.10156 70.3117 3.01562C70.3469 2.92578 70.3645 2.83008 70.3645 2.72852C70.3645 2.62695 70.3469 2.5332 70.3117 2.44727C70.2766 2.35742 70.2297 2.28125 70.1711 2.21875C70.1125 2.15234 70.0441 2.10156 69.966 2.06641C69.8879 2.02734 69.8078 2.00781 69.7258 2.00781C69.6437 2.00781 69.5637 2.02539 69.4855 2.06055C69.4074 2.0957 69.3352 2.15039 69.2687 2.22461ZM71.6359 9.73047C70.7062 9.64453 70.2375 9.45703 70.2297 9.16797C70.1906 7.99609 70.175 6.55664 70.1828 4.84961C70.1516 4.78711 70.0832 4.73633 69.9777 4.69727C69.4348 4.95117 68.8703 5.11133 68.2844 5.17773C68.2609 5.27148 68.2609 5.36328 68.2844 5.45312C68.7258 5.47656 69.0617 5.55664 69.2922 5.69336C69.3273 7.15039 69.3234 8.30859 69.2805 9.16797C69.2727 9.45703 68.9406 9.64453 68.2844 9.73047C68.2453 9.82812 68.2453 9.92383 68.2844 10.0176C69.4055 9.99414 70.5227 9.99414 71.6359 10.0176C71.675 9.92383 71.675 9.82812 71.6359 9.73047ZM71.8527 9.51367C71.9152 9.75586 71.9152 9.99219 71.8527 10.2227C70.5949 10.1836 69.3352 10.1836 68.0734 10.2227C68.007 9.99219 68.007 9.75586 68.0734 9.51367C68.7102 9.45117 69.0324 9.33203 69.0402 9.15625C69.091 8.0625 69.0949 6.95508 69.052 5.83398C68.7902 5.75586 68.4641 5.70508 68.0734 5.68164C67.9836 5.44727 67.9836 5.19922 68.0734 4.9375C68.6633 4.90625 69.3273 4.73047 70.0656 4.41016C70.4875 4.44141 70.802 4.56836 71.009 4.79102C70.9934 6.71289 71.009 8.16797 71.0559 9.15625C71.0676 9.33203 71.3332 9.45117 71.8527 9.51367Z" fill="#141414"/>
<path d="M8.75195 6.24414H7.9375C7.9375 7.17383 7.95703 8.1582 7.99609 9.19727C7.99609 9.2207 8.00586 9.24219 8.02539 9.26172C8.04492 9.28125 8.07227 9.30078 8.10742 9.32031C8.14648 9.33984 8.21094 9.36523 8.30078 9.39648C8.39062 9.42773 8.57227 9.46289 8.8457 9.50195C9.11914 9.53711 9.27539 9.55859 9.31445 9.56641C9.38086 9.78516 9.36914 10.0254 9.2793 10.2871C7.83789 10.2559 6.96289 10.2402 6.6543 10.2402C6.44336 10.2402 5.70703 10.2559 4.44531 10.2871C4.34766 10.0176 4.34766 9.76562 4.44531 9.53125C5.29297 9.44531 5.7207 9.33008 5.72852 9.18555C5.77539 8.20898 5.79883 6.98047 5.79883 5.5C5.79883 4.24219 5.7793 3.1543 5.74023 2.23633C5.73242 2.0918 5.29688 1.97656 4.43359 1.89062C4.35938 1.61719 4.36719 1.36523 4.45703 1.13477C5.65625 1.17383 6.45117 1.19336 6.8418 1.19336H12.2676C12.3652 1.95898 12.6699 2.76562 13.1816 3.61328C13.0918 3.80078 12.8828 3.95312 12.5547 4.07031C12.2344 3.48828 11.7617 3.00391 11.1367 2.61719C10.5156 2.22656 9.70898 2.03125 8.7168 2.03125H7.99609C7.95703 3.43359 7.9375 4.50977 7.9375 5.25977C8.12891 5.26758 8.4043 5.27148 8.76367 5.27148C9.0918 5.27148 9.35352 5.16211 9.54883 4.94336C9.74414 4.7207 9.95898 4.375 10.1934 3.90625L10.4453 3.41406C10.7734 3.53125 10.9805 3.68164 11.0664 3.86523C10.6523 4.61133 10.4453 5.22461 10.4453 5.70508C10.4453 6.22461 10.6523 6.83594 11.0664 7.53906C10.9727 7.73828 10.7734 7.89062 10.4688 7.99609C10.3789 7.875 10.2754 7.69141 10.1582 7.44531C9.99805 7.17969 9.87109 6.98242 9.77734 6.85352C9.68359 6.7207 9.54492 6.58789 9.36133 6.45508C9.17773 6.32227 8.97461 6.25195 8.75195 6.24414ZM7.03516 5.89844L8.70508 5.88672C8.87305 5.88672 9.03125 5.91406 9.17969 5.96875C9.32812 6.02344 9.44531 6.08008 9.53125 6.13867C9.62109 6.19336 9.72266 6.30078 9.83594 6.46094C9.95312 6.62109 10.0352 6.73828 10.082 6.8125C10.1328 6.88281 10.2148 7.03125 10.3281 7.25781C10.4453 7.48438 10.5234 7.63086 10.5625 7.69727C10.6836 7.64648 10.7598 7.59375 10.791 7.53906C10.4004 6.84375 10.2051 6.23242 10.2051 5.70508C10.2051 5.46289 10.2598 5.16797 10.3691 4.82031C10.4824 4.47266 10.623 4.1543 10.791 3.86523C10.7754 3.81055 10.6992 3.75977 10.5625 3.71289C10.5312 3.76758 10.4688 3.88477 10.375 4.06445C10.2852 4.24414 10.2266 4.36133 10.1992 4.41602C10.1719 4.4668 10.1152 4.5625 10.0293 4.70312C9.94727 4.84375 9.88086 4.9375 9.83008 4.98438C9.7832 5.03125 9.71289 5.10156 9.61914 5.19531C9.5293 5.28516 9.44141 5.34766 9.35547 5.38281C9.27344 5.41406 9.17578 5.44336 9.0625 5.4707C8.94922 5.49805 8.83008 5.51172 8.70508 5.51172C7.97461 5.51172 7.41797 5.50391 7.03516 5.48828C7.03516 4.54297 7.05859 3.31055 7.10547 1.79102H8.72852C10.6387 1.79102 11.9512 2.45117 12.666 3.77148C12.7676 3.73242 12.834 3.67969 12.8652 3.61328C12.4746 2.81641 12.0371 2.25391 11.5527 1.92578C11.0684 1.59766 10.3457 1.43359 9.38477 1.43359H6.67773C6.18945 1.43359 5.50391 1.41797 4.62109 1.38672V1.66211C5.51953 1.74805 5.97266 1.93555 5.98047 2.22461C6.01953 3.14258 6.03906 4.23438 6.03906 5.5C6.03906 6.73828 6.01562 7.9707 5.96875 9.19727C5.96094 9.48633 5.50781 9.67383 4.60938 9.75977C4.57812 9.82227 4.57812 9.91406 4.60938 10.0352C5.27344 10.0117 5.95508 10 6.6543 10C7.48633 10 8.28516 10.0117 9.05078 10.0352C9.08203 9.97266 9.08203 9.88086 9.05078 9.75977C7.76172 9.68164 7.10938 9.49414 7.09375 9.19727C7.05469 8.27539 7.03516 7.17578 7.03516 5.89844ZM14.4016 1.76758C15.2844 1.76758 15.7258 2.08789 15.7258 2.72852C15.7258 3.36914 15.2844 3.68945 14.4016 3.68945C14.2688 3.68945 14.1438 3.66406 14.0266 3.61328C13.9133 3.5625 13.8137 3.49414 13.7277 3.4082C13.6418 3.31836 13.5734 3.21484 13.5227 3.09766C13.4719 2.98047 13.4465 2.85742 13.4465 2.72852C13.4465 2.59961 13.4719 2.47656 13.5227 2.35938C13.5734 2.24219 13.6418 2.14062 13.7277 2.05469C13.8137 1.96484 13.9133 1.89453 14.0266 1.84375C14.1438 1.79297 14.2688 1.76758 14.4016 1.76758ZM13.8625 2.22461C13.7453 2.36133 13.6867 2.5293 13.6867 2.72852C13.6867 2.83008 13.7023 2.92578 13.7336 3.01562C13.7688 3.10156 13.8156 3.17773 13.8742 3.24414C13.9328 3.30664 13.9992 3.35742 14.0734 3.39648C14.1516 3.43164 14.2336 3.44922 14.3195 3.44922C14.4016 3.44922 14.4816 3.43164 14.5598 3.39648C14.6379 3.35742 14.7063 3.30664 14.7648 3.24414C14.8234 3.17773 14.8703 3.10156 14.9055 3.01562C14.9406 2.92578 14.9582 2.83008 14.9582 2.72852C14.9582 2.62695 14.9406 2.5332 14.9055 2.44727C14.8703 2.35742 14.8234 2.28125 14.7648 2.21875C14.7063 2.15234 14.6379 2.10156 14.5598 2.06641C14.4816 2.02734 14.4016 2.00781 14.3195 2.00781C14.2375 2.00781 14.1574 2.02539 14.0793 2.06055C14.0012 2.0957 13.9289 2.15039 13.8625 2.22461ZM16.2297 9.73047C15.3 9.64453 14.8313 9.45703 14.8234 9.16797C14.7844 7.99609 14.7688 6.55664 14.7766 4.84961C14.7453 4.78711 14.677 4.73633 14.5715 4.69727C14.0285 4.95117 13.4641 5.11133 12.8781 5.17773C12.8547 5.27148 12.8547 5.36328 12.8781 5.45312C13.3195 5.47656 13.6555 5.55664 13.8859 5.69336C13.9211 7.15039 13.9172 8.30859 13.8742 9.16797C13.8664 9.45703 13.5344 9.64453 12.8781 9.73047C12.8391 9.82812 12.8391 9.92383 12.8781 10.0176C13.9992 9.99414 15.1164 9.99414 16.2297 10.0176C16.2688 9.92383 16.2688 9.82812 16.2297 9.73047ZM16.4465 9.51367C16.509 9.75586 16.509 9.99219 16.4465 10.2227C15.1887 10.1836 13.9289 10.1836 12.6672 10.2227C12.6008 9.99219 12.6008 9.75586 12.6672 9.51367C13.3039 9.45117 13.6262 9.33203 13.634 9.15625C13.6848 8.0625 13.6887 6.95508 13.6457 5.83398C13.384 5.75586 13.0578 5.70508 12.6672 5.68164C12.5773 5.44727 12.5773 5.19922 12.6672 4.9375C13.257 4.90625 13.9211 4.73047 14.6594 4.41016C15.0813 4.44141 15.3957 4.56836 15.6027 4.79102C15.5871 6.71289 15.6027 8.16797 15.6496 9.15625C15.6613 9.33203 15.927 9.45117 16.4465 9.51367ZM19.9926 9.73047C19.9457 9.82031 19.9457 9.91602 19.9926 10.0176C21.0082 9.99414 22.0258 9.99414 23.0453 10.0176C23.1 9.92383 23.1 9.82812 23.0453 9.73047C22.0922 9.68359 21.6117 9.49609 21.6039 9.16797L21.5453 6.2207C21.5258 5.68555 21.4379 5.29492 21.2816 5.04883C21.1293 4.79883 20.8598 4.67383 20.473 4.67383C19.8246 4.67383 19.0531 5.12109 18.1586 6.01562V4.84961C18.1273 4.78711 18.059 4.73633 17.9535 4.69727C17.4105 4.95117 16.8461 5.11133 16.2602 5.17773C16.2367 5.27148 16.2367 5.36328 16.2602 5.45312C16.7094 5.47656 17.0414 5.55664 17.2563 5.69336C17.2992 6.86133 17.2992 8.01953 17.2563 9.16797C17.2484 9.45703 16.9125 9.64453 16.2484 9.73047C16.2016 9.82031 16.2016 9.91602 16.2484 10.0176C17.2641 9.97852 18.2855 9.97852 19.3129 10.0176C19.3598 9.91602 19.3598 9.82031 19.3129 9.73047C18.5824 9.65234 18.2133 9.46484 18.2055 9.16797C18.1742 8.35547 18.1586 7.42969 18.1586 6.39062C18.9438 5.69922 19.559 5.35352 20.0043 5.35352C20.4301 5.35352 20.643 5.70703 20.643 6.41406L20.6313 9.16797C20.6313 9.35938 20.5727 9.49414 20.4555 9.57227C20.3383 9.64648 20.184 9.69922 19.9926 9.73047ZM19.8051 10.2227C19.7074 9.99219 19.7074 9.75586 19.8051 9.51367C19.9301 9.51367 20.059 9.48047 20.1918 9.41406C20.3246 9.34375 20.391 9.26172 20.391 9.16797L20.4027 6.41406C20.4027 5.98828 20.3188 5.72852 20.1508 5.63477C19.8617 5.70508 19.473 5.91602 18.9848 6.26758C18.9848 7.3418 19.0004 8.30469 19.0316 9.15625C19.0512 9.36328 19.2074 9.48242 19.5004 9.51367C19.598 9.75586 19.598 9.99219 19.5004 10.2227C18.3559 10.1836 17.2055 10.1836 16.0492 10.2227C15.9516 9.99219 15.9516 9.75586 16.0492 9.51367C16.6859 9.42773 17.0082 9.30859 17.016 9.15625C17.059 8.05469 17.059 6.94727 17.016 5.83398C16.7543 5.75586 16.432 5.70508 16.0492 5.68164C15.9594 5.44727 15.9594 5.19922 16.0492 4.9375C16.6391 4.90625 17.3031 4.73047 18.0414 4.41016C18.4633 4.44141 18.7777 4.56836 18.9848 4.79102V4.98438C19.5395 4.61719 20.1762 4.43359 20.8949 4.43359C21.4223 4.43359 21.7973 4.57812 22.0199 4.86719C22.2465 5.15234 22.3637 5.60352 22.3715 6.2207C22.3871 7.77148 22.4066 8.75391 22.4301 9.16797C22.4379 9.32812 22.7133 9.44336 23.2563 9.51367C23.3461 9.77148 23.3383 10.0078 23.2328 10.2227C22.0883 10.1992 20.9457 10.1992 19.8051 10.2227ZM25.7008 9.40234C25.2359 9.40234 24.8824 9.21484 24.6402 8.83984C24.402 8.46094 24.2828 7.98438 24.2828 7.41016C24.2828 6.94531 24.3297 6.54688 24.4234 6.21484C24.5211 5.88281 24.648 5.63867 24.8043 5.48242C24.9605 5.32617 25.1129 5.2168 25.2613 5.1543C25.4098 5.08789 25.5602 5.05469 25.7125 5.05469C26.2633 5.05469 26.6754 5.28711 26.9488 5.75195V6.60156C26.9488 7.66797 26.9449 8.39258 26.9371 8.77539C26.5035 9.19336 26.0914 9.40234 25.7008 9.40234ZM29.527 9.53125C29.6559 9.78906 29.648 10.0371 29.5035 10.2754C28.5035 10.2441 27.6637 10.2441 26.984 10.2754C26.8395 10.2129 26.7477 10.1328 26.7086 10.0352C26.3297 10.2852 25.8043 10.4102 25.1324 10.4102C24.4684 10.4102 23.9293 10.1621 23.5152 9.66602C23.1051 9.16992 22.9 8.49414 22.9 7.63867C22.9 7.25977 22.9566 6.89062 23.0699 6.53125C23.1832 6.17188 23.3531 5.83203 23.5797 5.51172C23.8062 5.19141 24.1207 4.93164 24.523 4.73242C24.9293 4.5332 25.3922 4.43359 25.9117 4.43359C26.2672 4.43359 26.5328 4.44141 26.7086 4.45703C26.7008 3.83984 26.6969 3.09961 26.6969 2.23633C26.4391 2.1543 26.0816 2.10156 25.6246 2.07812C25.5387 1.84766 25.5387 1.59961 25.6246 1.33398C26.1715 1.28711 26.8648 1.11133 27.7047 0.806641C28.1266 0.837891 28.441 0.966797 28.648 1.19336C28.648 5.65039 28.6656 8.31445 28.7008 9.18555C28.7086 9.35352 28.984 9.46875 29.527 9.53125ZM26.7086 5.81055C26.5133 5.5332 26.2574 5.36914 25.941 5.31836C25.6676 5.37695 25.4332 5.56641 25.2379 5.88672C25.0426 6.20312 24.9449 6.71094 24.9449 7.41016C24.9449 7.86328 25.023 8.24805 25.1793 8.56445C25.3395 8.88086 25.5797 9.07227 25.9 9.13867C26.1578 9.08008 26.4234 8.92773 26.6969 8.68164C26.7047 8.29492 26.7086 7.60156 26.7086 6.60156V5.81055ZM29.3102 9.74805C29.1109 9.73242 28.9586 9.7168 28.8531 9.70117C28.7516 9.68555 28.607 9.6582 28.4195 9.61914C28.2359 9.57617 28.0973 9.52148 28.0035 9.45508C27.9137 9.38477 27.8687 9.29883 27.8687 9.19727C27.8375 8.32617 27.8219 5.67773 27.8219 1.25195C27.7828 1.18164 27.7145 1.12891 27.6168 1.09375C27.0973 1.34375 26.4937 1.50391 25.8062 1.57422C25.7828 1.67188 25.7828 1.76367 25.8062 1.84961C26.3336 1.87695 26.7105 1.95703 26.9371 2.08984C26.9371 3.19531 26.941 4.11914 26.9488 4.86133C26.5465 4.73633 26.2008 4.67383 25.9117 4.67383C25.4508 4.67383 25.0426 4.76562 24.6871 4.94922C24.3355 5.13281 24.0602 5.375 23.8609 5.67578C23.6617 5.97266 23.5113 6.28711 23.4098 6.61914C23.3121 6.95117 23.2633 7.29102 23.2633 7.63867C23.2633 8.41992 23.4371 9.03711 23.7848 9.49023C24.1324 9.94336 24.5504 10.1699 25.0387 10.1699C25.6559 10.1699 26.2828 9.85352 26.9195 9.2207C26.9195 9.54883 26.9117 9.75977 26.8961 9.85352C26.9391 9.94336 26.9879 10.0039 27.0426 10.0352C27.1715 10.0273 27.2984 10.0195 27.4234 10.0117C27.5523 10.0039 27.6539 9.99805 27.7281 9.99414C27.8062 9.99023 27.8746 9.98828 27.9332 9.98828C28.148 9.98828 28.607 10 29.3102 10.0234C29.3648 9.94531 29.3648 9.85352 29.3102 9.74805ZM30.8758 1.76758C31.7586 1.76758 32.2 2.08789 32.2 2.72852C32.2 3.36914 31.7586 3.68945 30.8758 3.68945C30.743 3.68945 30.618 3.66406 30.5008 3.61328C30.3875 3.5625 30.2879 3.49414 30.202 3.4082C30.116 3.31836 30.0477 3.21484 29.9969 3.09766C29.9461 2.98047 29.9207 2.85742 29.9207 2.72852C29.9207 2.59961 29.9461 2.47656 29.9969 2.35938C30.0477 2.24219 30.116 2.14062 30.202 2.05469C30.2879 1.96484 30.3875 1.89453 30.5008 1.84375C30.618 1.79297 30.743 1.76758 30.8758 1.76758ZM30.3367 2.22461C30.2195 2.36133 30.1609 2.5293 30.1609 2.72852C30.1609 2.83008 30.1766 2.92578 30.2078 3.01562C30.243 3.10156 30.2898 3.17773 30.3484 3.24414C30.407 3.30664 30.4734 3.35742 30.5477 3.39648C30.6258 3.43164 30.7078 3.44922 30.7938 3.44922C30.8758 3.44922 30.9559 3.43164 31.034 3.39648C31.1121 3.35742 31.1805 3.30664 31.2391 3.24414C31.2977 3.17773 31.3445 3.10156 31.3797 3.01562C31.4148 2.92578 31.4324 2.83008 31.4324 2.72852C31.4324 2.62695 31.4148 2.5332 31.3797 2.44727C31.3445 2.35742 31.2977 2.28125 31.2391 2.21875C31.1805 2.15234 31.1121 2.10156 31.034 2.06641C30.9559 2.02734 30.8758 2.00781 30.7938 2.00781C30.7117 2.00781 30.6316 2.02539 30.5535 2.06055C30.4754 2.0957 30.4031 2.15039 30.3367 2.22461ZM32.7039 9.73047C31.7742 9.64453 31.3055 9.45703 31.2977 9.16797C31.2586 7.99609 31.243 6.55664 31.2508 4.84961C31.2195 4.78711 31.1512 4.73633 31.0457 4.69727C30.5027 4.95117 29.9383 5.11133 29.3523 5.17773C29.3289 5.27148 29.3289 5.36328 29.3523 5.45312C29.7938 5.47656 30.1297 5.55664 30.3602 5.69336C30.3953 7.15039 30.3914 8.30859 30.3484 9.16797C30.3406 9.45703 30.0086 9.64453 29.3523 9.73047C29.3133 9.82812 29.3133 9.92383 29.3523 10.0176C30.4734 9.99414 31.5906 9.99414 32.7039 10.0176C32.743 9.92383 32.743 9.82812 32.7039 9.73047ZM32.9207 9.51367C32.9832 9.75586 32.9832 9.99219 32.9207 10.2227C31.6629 10.1836 30.4031 10.1836 29.1414 10.2227C29.075 9.99219 29.075 9.75586 29.1414 9.51367C29.7781 9.45117 30.1004 9.33203 30.1082 9.15625C30.159 8.0625 30.1629 6.95508 30.1199 5.83398C29.8582 5.75586 29.532 5.70508 29.1414 5.68164C29.0516 5.44727 29.0516 5.19922 29.1414 4.9375C29.7313 4.90625 30.3953 4.73047 31.1336 4.41016C31.5555 4.44141 31.8699 4.56836 32.077 4.79102C32.0613 6.71289 32.077 8.16797 32.1238 9.15625C32.1355 9.33203 32.4012 9.45117 32.9207 9.51367ZM36.4668 9.73047C36.4199 9.82031 36.4199 9.91602 36.4668 10.0176C37.4824 9.99414 38.5 9.99414 39.5195 10.0176C39.5742 9.92383 39.5742 9.82812 39.5195 9.73047C38.5664 9.68359 38.0859 9.49609 38.0781 9.16797L38.0195 6.2207C38 5.68555 37.9121 5.29492 37.7559 5.04883C37.6035 4.79883 37.334 4.67383 36.9473 4.67383C36.2988 4.67383 35.5273 5.12109 34.6328 6.01562V4.84961C34.6016 4.78711 34.5332 4.73633 34.4277 4.69727C33.8848 4.95117 33.3203 5.11133 32.7344 5.17773C32.7109 5.27148 32.7109 5.36328 32.7344 5.45312C33.1836 5.47656 33.5156 5.55664 33.7305 5.69336C33.7734 6.86133 33.7734 8.01953 33.7305 9.16797C33.7227 9.45703 33.3867 9.64453 32.7227 9.73047C32.6758 9.82031 32.6758 9.91602 32.7227 10.0176C33.7383 9.97852 34.7598 9.97852 35.7871 10.0176C35.834 9.91602 35.834 9.82031 35.7871 9.73047C35.0566 9.65234 34.6875 9.46484 34.6797 9.16797C34.6484 8.35547 34.6328 7.42969 34.6328 6.39062C35.418 5.69922 36.0332 5.35352 36.4785 5.35352C36.9043 5.35352 37.1172 5.70703 37.1172 6.41406L37.1055 9.16797C37.1055 9.35938 37.0469 9.49414 36.9297 9.57227C36.8125 9.64648 36.6582 9.69922 36.4668 9.73047ZM36.2793 10.2227C36.1816 9.99219 36.1816 9.75586 36.2793 9.51367C36.4043 9.51367 36.5332 9.48047 36.666 9.41406C36.7988 9.34375 36.8652 9.26172 36.8652 9.16797L36.877 6.41406C36.877 5.98828 36.793 5.72852 36.625 5.63477C36.3359 5.70508 35.9473 5.91602 35.459 6.26758C35.459 7.3418 35.4746 8.30469 35.5059 9.15625C35.5254 9.36328 35.6816 9.48242 35.9746 9.51367C36.0723 9.75586 36.0723 9.99219 35.9746 10.2227C34.8301 10.1836 33.6797 10.1836 32.5234 10.2227C32.4258 9.99219 32.4258 9.75586 32.5234 9.51367C33.1602 9.42773 33.4824 9.30859 33.4902 9.15625C33.5332 8.05469 33.5332 6.94727 33.4902 5.83398C33.2285 5.75586 32.9062 5.70508 32.5234 5.68164C32.4336 5.44727 32.4336 5.19922 32.5234 4.9375C33.1133 4.90625 33.7773 4.73047 34.5156 4.41016C34.9375 4.44141 35.252 4.56836 35.459 4.79102V4.98438C36.0137 4.61719 36.6504 4.43359 37.3691 4.43359C37.8965 4.43359 38.2715 4.57812 38.4941 4.86719C38.7207 5.15234 38.8379 5.60352 38.8457 6.2207C38.8613 7.77148 38.8809 8.75391 38.9043 9.16797C38.9121 9.32812 39.1875 9.44336 39.7305 9.51367C39.8203 9.77148 39.8125 10.0078 39.707 10.2227C38.5625 10.1992 37.4199 10.1992 36.2793 10.2227ZM40.634 6.60156C40.634 6.05859 40.7355 5.66602 40.9387 5.42383C41.1457 5.17773 41.4055 5.05469 41.718 5.05469C41.9484 5.05469 42.1613 5.16602 42.3566 5.38867C42.5559 5.60742 42.6555 5.97656 42.6555 6.49609C42.6555 7.60938 42.3508 8.16602 41.7414 8.16602C41.0031 8.16602 40.634 7.64453 40.634 6.60156ZM40.6105 11.5586C40.6105 11.1289 40.8586 10.7812 41.3547 10.5156C41.6672 10.4844 42.1477 10.4688 42.7961 10.4688C43.2609 10.4688 43.5715 10.5547 43.7277 10.7266C43.884 10.8984 43.9621 11.1484 43.9621 11.4766C43.9621 11.7578 43.8117 12.0488 43.5109 12.3496C43.2102 12.6543 42.7609 12.8066 42.1633 12.8066C41.6242 12.8066 41.2297 12.6836 40.9797 12.4375C40.7336 12.1953 40.6105 11.9023 40.6105 11.5586ZM44.3781 4.92578C44.4836 4.93359 44.5363 4.98828 44.5363 5.08984C44.5363 5.21875 44.4562 5.29492 44.2961 5.31836C44.1594 5.33398 43.9914 5.30273 43.7922 5.22461C43.6867 5.18555 43.552 5.13086 43.3879 5.06055C43.2238 4.98633 43.1086 4.93555 43.0422 4.9082C42.9758 4.87695 42.884 4.8418 42.7668 4.80273C42.6496 4.76367 42.548 4.73828 42.4621 4.72656C42.3801 4.71484 42.2766 4.70312 42.1516 4.69141C42.0305 4.67969 41.8937 4.67383 41.7414 4.67383C41.1477 4.67383 40.6437 4.87305 40.2297 5.27148C39.8195 5.66992 39.6145 6.10938 39.6145 6.58984C39.6145 7.36719 39.968 7.95117 40.675 8.3418C40.0422 8.81445 39.7258 9.23828 39.7258 9.61328C39.7258 10.0859 40.1008 10.3789 40.8508 10.4922C40.0852 10.9062 39.7023 11.4023 39.7023 11.9805C39.7023 12.3555 39.8781 12.668 40.2297 12.918C40.5812 13.1719 41.0969 13.2988 41.7766 13.2988C42.5852 13.2988 43.2687 13.0312 43.8273 12.4961C44.3898 11.9609 44.6711 11.416 44.6711 10.8613C44.6711 9.9668 44.1262 9.51953 43.0363 9.51953C42.9152 9.51953 42.7551 9.52344 42.5559 9.53125C42.3566 9.53906 42.2199 9.54297 42.1457 9.54297C41.548 9.54297 41.1262 9.50391 40.8801 9.42578C40.6379 9.34375 40.5168 9.21484 40.5168 9.03906C40.5168 8.81641 40.6887 8.63281 41.0324 8.48828C41.2707 8.52734 41.5227 8.54688 41.7883 8.54688C42.3156 8.54688 42.7609 8.36328 43.1242 7.99609C43.4914 7.62891 43.675 7.13281 43.675 6.50781C43.675 6.01172 43.5812 5.63672 43.3937 5.38281L43.423 5.35352C43.4855 5.39648 43.5695 5.45703 43.675 5.53516C43.7844 5.60938 43.8664 5.66211 43.9211 5.69336C43.9797 5.72461 44.0539 5.75586 44.1437 5.78711C44.2375 5.81836 44.3293 5.83398 44.4191 5.83398C44.5676 5.83398 44.6926 5.77734 44.7941 5.66406C44.8957 5.54688 44.9465 5.4082 44.9465 5.24805C44.9465 5.08008 44.8977 4.93945 44.8 4.82617C44.7062 4.70898 44.5656 4.65039 44.3781 4.65039C44.3234 4.75195 44.3234 4.84375 44.3781 4.92578ZM44.4543 6.07422C44.4855 6.20312 44.5012 6.34766 44.5012 6.50781C44.5012 7.20312 44.2785 7.75781 43.8332 8.17188C43.3918 8.58203 42.8508 8.78711 42.2102 8.78711H41.4777C41.3645 8.91602 41.3312 9.03125 41.3781 9.13281C41.4289 9.23047 41.5227 9.2793 41.6594 9.2793H43.6223C44.8723 9.2793 45.4973 9.80664 45.4973 10.8613C45.4973 11.1426 45.4133 11.4375 45.2453 11.7461C45.0773 12.0547 44.843 12.3418 44.5422 12.6074C44.2414 12.877 43.8469 13.0996 43.3586 13.2754C42.8703 13.4512 42.343 13.5391 41.7766 13.5391C41.0148 13.5391 40.4387 13.3906 40.048 13.0938C39.6574 12.8008 39.4621 12.4297 39.4621 11.9805C39.4621 11.4844 39.7219 11.0234 40.2414 10.5977C39.7375 10.4219 39.4855 10.0938 39.4855 9.61328C39.4855 9.19922 39.7414 8.7793 40.2531 8.35352C39.6672 7.93164 39.3742 7.34375 39.3742 6.58984C39.3742 6.05469 39.6047 5.5625 40.0656 5.11328C40.5266 4.66016 41.0852 4.43359 41.7414 4.43359C42.2297 4.43359 42.5891 4.45898 42.8195 4.50977C43.0539 4.56055 43.3469 4.6582 43.6984 4.80273C43.8742 4.54102 44.1008 4.41016 44.3781 4.41016C44.6516 4.41016 44.8547 4.49023 44.9875 4.65039C45.1203 4.81055 45.1867 5.00977 45.1867 5.24805C45.1867 5.47852 45.1203 5.67383 44.9875 5.83398C44.8547 5.99414 44.677 6.07422 44.4543 6.07422ZM41.4426 11.5586C41.4426 11.8086 41.5148 12.0273 41.6594 12.2148C41.8078 12.4023 42.0461 12.5156 42.3742 12.5547C42.8234 12.5156 43.1594 12.377 43.382 12.1387C43.6086 11.9043 43.7219 11.6836 43.7219 11.4766C43.7219 11.2344 43.6672 11.0449 43.5578 10.9082C43.4484 10.7754 43.2395 10.709 42.9309 10.709C42.5598 10.709 42.1945 10.7246 41.8352 10.7559C41.5734 10.9785 41.4426 11.2461 41.4426 11.5586ZM41.466 6.60156C41.466 7.33984 41.6262 7.76953 41.9465 7.89062C42.259 7.76953 42.4152 7.30469 42.4152 6.49609C42.4152 5.85547 42.2512 5.4707 41.923 5.3418C41.6184 5.4707 41.466 5.89062 41.466 6.60156ZM50.2047 1.89062C50.0055 1.89844 49.8883 1.94531 49.8531 2.03125C49.818 2.11328 49.8434 2.26172 49.9293 2.47656L51.734 6.91797L52.4488 4.99609L51.441 2.46484C51.3551 2.25781 51.2496 2.11523 51.1246 2.03711C50.9996 1.95508 50.8023 1.90625 50.5328 1.89062C50.4352 1.64062 50.4352 1.4082 50.5328 1.19336H54.6695C54.7672 1.4082 54.7672 1.64062 54.6695 1.89062C54.2477 1.90625 53.9723 1.96484 53.8434 2.06641C53.7145 2.16406 53.6832 2.30078 53.7496 2.47656L55.4254 6.88281L57.0719 2.47656C57.15 2.26172 57.1227 2.11914 56.9898 2.04883C56.8609 1.97461 56.5992 1.92187 56.2047 1.89062C56.1109 1.64062 56.1109 1.4082 56.2047 1.19336H59.6852C59.7828 1.4082 59.7828 1.64062 59.6852 1.89062C59.0953 1.92969 58.7164 1.98828 58.5484 2.06641C58.3727 2.15625 58.2477 2.29297 58.1734 2.47656L55.1734 10.4102H54.5758L53.0055 6.36133L51.4762 10.4102H50.8902L47.6148 2.47656C47.5367 2.28516 47.398 2.15039 47.1988 2.07227C47.0035 1.99023 46.7105 1.92969 46.3199 1.89062C46.2223 1.64062 46.2223 1.4082 46.3199 1.19336H50.2047C50.3023 1.4082 50.3023 1.64062 50.2047 1.89062ZM50.0055 1.38672H46.525C46.4742 1.46484 46.4742 1.55664 46.525 1.66211C47.2281 1.73242 47.6637 1.97266 47.8316 2.38281L51.0484 10.1699H51.3121L52.9762 5.70508L54.7457 10.1699H55.0094L57.9859 2.30664C58.0719 2.08398 58.2281 1.92969 58.4547 1.84375C58.6852 1.75391 59.0113 1.69336 59.4332 1.66211C59.484 1.55664 59.484 1.46484 59.4332 1.38672H56.4566C56.4098 1.46484 56.4098 1.55664 56.4566 1.66211C56.9215 1.7168 57.2066 1.78906 57.3121 1.87891C57.441 1.98047 57.4684 2.12305 57.3941 2.30664L55.1148 8.44141L52.8004 2.38281C52.7105 2.17188 52.8023 2.00781 53.0758 1.89062C53.3492 1.76953 53.7965 1.69336 54.4176 1.66211C54.4684 1.55664 54.4684 1.46484 54.4176 1.38672H50.7379C50.6871 1.46484 50.6871 1.55664 50.7379 1.66211C50.984 1.68555 51.1773 1.75 51.318 1.85547C51.4586 1.95703 51.5758 2.13281 51.6695 2.38281L52.7008 4.99609L51.4176 8.44141L48.9566 2.38281C48.8238 2.11719 48.8375 1.94141 48.9977 1.85547C49.1578 1.76563 49.4938 1.70117 50.0055 1.66211C50.0523 1.55664 50.0523 1.46484 50.0055 1.38672ZM60.4539 1.76758C61.3367 1.76758 61.7781 2.08789 61.7781 2.72852C61.7781 3.36914 61.3367 3.68945 60.4539 3.68945C60.3211 3.68945 60.1961 3.66406 60.0789 3.61328C59.9656 3.5625 59.866 3.49414 59.7801 3.4082C59.6941 3.31836 59.6258 3.21484 59.575 3.09766C59.5242 2.98047 59.4988 2.85742 59.4988 2.72852C59.4988 2.59961 59.5242 2.47656 59.575 2.35938C59.6258 2.24219 59.6941 2.14062 59.7801 2.05469C59.866 1.96484 59.9656 1.89453 60.0789 1.84375C60.1961 1.79297 60.3211 1.76758 60.4539 1.76758ZM59.9148 2.22461C59.7977 2.36133 59.7391 2.5293 59.7391 2.72852C59.7391 2.83008 59.7547 2.92578 59.7859 3.01562C59.8211 3.10156 59.868 3.17773 59.9266 3.24414C59.9852 3.30664 60.0516 3.35742 60.1258 3.39648C60.2039 3.43164 60.2859 3.44922 60.3719 3.44922C60.4539 3.44922 60.534 3.43164 60.6121 3.39648C60.6902 3.35742 60.7586 3.30664 60.8172 3.24414C60.8758 3.17773 60.9227 3.10156 60.9578 3.01562C60.993 2.92578 61.0105 2.83008 61.0105 2.72852C61.0105 2.62695 60.993 2.5332 60.9578 2.44727C60.9227 2.35742 60.8758 2.28125 60.8172 2.21875C60.7586 2.15234 60.6902 2.10156 60.6121 2.06641C60.534 2.02734 60.4539 2.00781 60.3719 2.00781C60.2898 2.00781 60.2098 2.02539 60.1316 2.06055C60.0535 2.0957 59.9813 2.15039 59.9148 2.22461ZM62.282 9.73047C61.3523 9.64453 60.8836 9.45703 60.8758 9.16797C60.8367 7.99609 60.8211 6.55664 60.8289 4.84961C60.7977 4.78711 60.7293 4.73633 60.6238 4.69727C60.0809 4.95117 59.5164 5.11133 58.9305 5.17773C58.907 5.27148 58.907 5.36328 58.9305 5.45312C59.3719 5.47656 59.7078 5.55664 59.9383 5.69336C59.9734 7.15039 59.9695 8.30859 59.9266 9.16797C59.9188 9.45703 59.5867 9.64453 58.9305 9.73047C58.8914 9.82812 58.8914 9.92383 58.9305 10.0176C60.0516 9.99414 61.1688 9.99414 62.282 10.0176C62.3211 9.92383 62.3211 9.82812 62.282 9.73047ZM62.4988 9.51367C62.5613 9.75586 62.5613 9.99219 62.4988 10.2227C61.241 10.1836 59.9813 10.1836 58.7195 10.2227C58.6531 9.99219 58.6531 9.75586 58.7195 9.51367C59.3563 9.45117 59.6785 9.33203 59.6863 9.15625C59.7371 8.0625 59.741 6.95508 59.698 5.83398C59.4363 5.75586 59.1102 5.70508 58.7195 5.68164C58.6297 5.44727 58.6297 5.19922 58.7195 4.9375C59.3094 4.90625 59.9734 4.73047 60.7117 4.41016C61.1336 4.44141 61.448 4.56836 61.6551 4.79102C61.6395 6.71289 61.6551 8.16797 61.702 9.15625C61.7137 9.33203 61.9793 9.45117 62.4988 9.51367ZM65.4473 4.80273C65.4004 4.9082 65.4004 5 65.4473 5.07812C65.5684 5.09375 65.6797 5.125 65.7812 5.17188C65.8867 5.21484 65.9609 5.2793 66.0039 5.36523C66.0469 5.44727 66.0098 5.54102 65.8926 5.64648L64.7031 6.77148H64.2344C64.2266 5.61133 64.2227 3.77148 64.2227 1.25195C64.1836 1.18164 64.1152 1.12891 64.0176 1.09375C63.498 1.34375 62.8945 1.50391 62.207 1.57422C62.1836 1.67188 62.1836 1.76367 62.207 1.84961C62.7344 1.87695 63.1113 1.95703 63.3379 2.08984C63.3379 2.57812 63.3438 3.3125 63.3555 4.29297C63.3672 5.27344 63.373 6.15625 63.373 6.94141C63.373 7.72266 63.3555 8.47461 63.3203 9.19727C63.3125 9.48633 62.9805 9.67383 62.3242 9.75977C62.2773 9.85742 62.2773 9.94922 62.3242 10.0352C62.8398 10.0117 63.3359 10 63.8125 10C64.2773 10 64.7656 10.0117 65.2773 10.0352C65.3281 9.94922 65.3281 9.85742 65.2773 9.75977C64.6055 9.67383 64.2695 9.48633 64.2695 9.19727C64.2461 8.76367 64.2344 8.08008 64.2344 7.14648H64.6914L66.2852 9.19727C66.5195 9.49414 66.3926 9.66992 65.9043 9.72461C65.8574 9.81836 65.8574 9.91016 65.9043 10H67.2461C67.6875 10 68.1836 10.0117 68.7344 10.0352C68.7812 9.94922 68.7812 9.85742 68.7344 9.75977C68.2383 9.70508 67.8906 9.60938 67.6914 9.47266C67.5781 9.39844 67.4785 9.30664 67.3926 9.19727L65.4004 6.68945L66.4316 5.64648C66.7285 5.3418 67.2207 5.15234 67.9082 5.07812C67.9395 4.98438 67.9395 4.89258 67.9082 4.80273C67.0371 4.85352 66.2168 4.85352 65.4473 4.80273ZM65.3418 4.5625C66.3965 4.60156 67.3066 4.59766 68.0723 4.55078C68.1699 4.79297 68.1758 5.04492 68.0898 5.30664C67.3594 5.38086 66.8633 5.54883 66.6016 5.81055L66.0449 6.37891L68.1719 9.05078C68.3008 9.21094 68.4141 9.32422 68.5117 9.39062C68.6133 9.45312 68.7676 9.50391 68.9746 9.54297C69.0645 9.80078 69.0566 10.0371 68.9512 10.252C68.1504 10.2051 67.1055 10.2051 65.8164 10.252C65.6992 10.0059 65.6836 9.76953 65.7695 9.54297C66.0039 9.49609 66.0762 9.38086 65.9863 9.19727L65.0605 8.01953C65.0605 8.52344 65.0742 8.91602 65.1016 9.19727C65.1172 9.38086 65.2168 9.49609 65.4004 9.54297C65.4785 9.75 65.4707 9.98633 65.377 10.252C64.3105 10.2285 63.2383 10.2285 62.1602 10.252C62 10.0137 61.9922 9.77734 62.1367 9.54297C62.7578 9.46484 63.0742 9.3457 63.0859 9.18555C63.1016 8.79883 63.1094 7.9375 63.1094 6.60156C63.1094 6.27344 63.1074 5.7832 63.1035 5.13086C63.0996 4.47461 63.0977 4.00195 63.0977 3.71289V2.23633C62.8398 2.1543 62.4824 2.10156 62.0254 2.07812C61.9395 1.84766 61.9395 1.59961 62.0254 1.33398C62.5723 1.28711 63.2656 1.11133 64.1055 0.806641C64.5273 0.837891 64.8418 0.966797 65.0488 1.19336V6.09766L65.7227 5.46484C65.7773 5.41016 65.7734 5.36914 65.7109 5.3418C65.6797 5.33398 65.5508 5.31055 65.3242 5.27148C65.207 5.04883 65.2129 4.8125 65.3418 4.5625ZM69.8078 1.76758C70.6906 1.76758 71.132 2.08789 71.132 2.72852C71.132 3.36914 70.6906 3.68945 69.8078 3.68945C69.675 3.68945 69.55 3.66406 69.4328 3.61328C69.3195 3.5625 69.2199 3.49414 69.134 3.4082C69.048 3.31836 68.9797 3.21484 68.9289 3.09766C68.8781 2.98047 68.8527 2.85742 68.8527 2.72852C68.8527 2.59961 68.8781 2.47656 68.9289 2.35938C68.9797 2.24219 69.048 2.14062 69.134 2.05469C69.2199 1.96484 69.3195 1.89453 69.4328 1.84375C69.55 1.79297 69.675 1.76758 69.8078 1.76758ZM69.2687 2.22461C69.1516 2.36133 69.093 2.5293 69.093 2.72852C69.093 2.83008 69.1086 2.92578 69.1398 3.01562C69.175 3.10156 69.2219 3.17773 69.2805 3.24414C69.3391 3.30664 69.4055 3.35742 69.4797 3.39648C69.5578 3.43164 69.6398 3.44922 69.7258 3.44922C69.8078 3.44922 69.8879 3.43164 69.966 3.39648C70.0441 3.35742 70.1125 3.30664 70.1711 3.24414C70.2297 3.17773 70.2766 3.10156 70.3117 3.01562C70.3469 2.92578 70.3645 2.83008 70.3645 2.72852C70.3645 2.62695 70.3469 2.5332 70.3117 2.44727C70.2766 2.35742 70.2297 2.28125 70.1711 2.21875C70.1125 2.15234 70.0441 2.10156 69.966 2.06641C69.8879 2.02734 69.8078 2.00781 69.7258 2.00781C69.6437 2.00781 69.5637 2.02539 69.4855 2.06055C69.4074 2.0957 69.3352 2.15039 69.2687 2.22461ZM71.6359 9.73047C70.7062 9.64453 70.2375 9.45703 70.2297 9.16797C70.1906 7.99609 70.175 6.55664 70.1828 4.84961C70.1516 4.78711 70.0832 4.73633 69.9777 4.69727C69.4348 4.95117 68.8703 5.11133 68.2844 5.17773C68.2609 5.27148 68.2609 5.36328 68.2844 5.45312C68.7258 5.47656 69.0617 5.55664 69.2922 5.69336C69.3273 7.15039 69.3234 8.30859 69.2805 9.16797C69.2727 9.45703 68.9406 9.64453 68.2844 9.73047C68.2453 9.82812 68.2453 9.92383 68.2844 10.0176C69.4055 9.99414 70.5227 9.99414 71.6359 10.0176C71.675 9.92383 71.675 9.82812 71.6359 9.73047ZM71.8527 9.51367C71.9152 9.75586 71.9152 9.99219 71.8527 10.2227C70.5949 10.1836 69.3352 10.1836 68.0734 10.2227C68.007 9.99219 68.007 9.75586 68.0734 9.51367C68.7102 9.45117 69.0324 9.33203 69.0402 9.15625C69.091 8.0625 69.0949 6.95508 69.052 5.83398C68.7902 5.75586 68.4641 5.70508 68.0734 5.68164C67.9836 5.44727 67.9836 5.19922 68.0734 4.9375C68.6633 4.90625 69.3273 4.73047 70.0656 4.41016C70.4875 4.44141 70.802 4.56836 71.009 4.79102C70.9934 6.71289 71.009 8.16797 71.0559 9.15625C71.0676 9.33203 71.3332 9.45117 71.8527 9.51367Z" fill="black" fill-opacity="0.2"/>
</g>
<defs>
<filter id="filter0_d_1_3" x="0.298828" y="0.806641" width="75.6477" height="20.7324" filterUnits="userSpaceOnUse" color-interpolation-filters="sRGB">
<feFlood flood-opacity="0" result="BackgroundImageFix"/>
<feColorMatrix in="SourceAlpha" type="matrix" values="0 0 0 0 0 0 0 0 0 0 0 0 0 0 0 0 0 0 127 0" result="hardAlpha"/>
<feOffset dy="4"/>
<feGaussianBlur stdDeviation="2"/>
<feComposite in2="hardAlpha" operator="out"/>
<feColorMatrix type="matrix" values="0 0 0 0 0 0 0 0 0 0 0 0 0 0 0 0 0 0 0.25 0"/>
<feBlend mode="normal" in2="BackgroundImageFix" result="effect1_dropShadow_1_3"/>
<feBlend mode="normal" in="SourceGraphic" in2="effect1_dropShadow_1_3" result="shape"/>
</filter>
</defs>
</svg>
